<?xml version="1.0" encoding="utf-8"?>
<!-- Generator: Adobe Illustrator 26.0.0, SVG Export Plug-In . SVG Version: 6.00 Build 0)  -->
<svg version="1.1" id="Layer_1" xmlns="http://www.w3.org/2000/svg" xmlns:xlink="http://www.w3.org/1999/xlink" x="0px" y="0px"
	 viewBox="0 0 160 50" style="enable-background:new 0 0 160 50;" xml:space="preserve">
<style type="text/css">
	.st0{enable-background:new    ;}
	.st1{fill:#FFFFFF;}
	.st2{fill:#E4C590;}
	.st3{fill:url(#SVGID_1_);}
	.st4{fill:url(#SVGID_00000002346725540289427120000009592254078197328540_);}
</style>
<g>
	<g class="st0">
		<path class="st1" d="M65.5,29.1h-3.3V17.6c0-0.6,0.1-1.4,0.2-2.5l-3,11.8h-1.8l-3-11.8c0.1,1.1,0.2,1.9,0.2,2.5v11.4h-3.3V5.9h3.3
			l3.6,12.8c0,0.1,0.1,0.5,0.1,1.1c0-0.2,0-0.6,0.1-1.1l3.6-12.8h3.3V29.1z"/>
		<path class="st1" d="M81.2,29.1h-3.4l-0.7-4.4h-4.3L72,29.1h-3.4V29l4.5-23.2h3.6L81.2,29.1z M76.6,21.7l-1.7-10.5l-1.7,10.5H76.6
			z"/>
		<path class="st1" d="M94.7,26.9c0,1.4-0.7,2.1-2.1,2.1H86c-1.4,0-2.1-0.7-2.1-2.1v-5.7h3.5v4.8h3.9V5.9h3.5V26.9z"/>
		<path class="st1" d="M108.2,29.1h-9.6V5.9h9.5v3.1h-6.1v6.8h5.2v3h-5.2V26h6.2V29.1z"/>
		<path class="st1" d="M122.9,26.9c0,1.4-0.7,2.1-2.1,2.1h-7c-1.4,0-2.1-0.7-2.1-2.1v-5.5h3.5v4.7h4.2v-4.5l-7-6.6
			c-0.5-0.5-0.8-1.1-0.8-1.9V8c0-1.4,0.7-2.1,2.1-2.1h7c1.4,0,2.1,0.7,2.1,2.1v5.2h-3.5V8.8h-4.2V13l7,6.6c0.5,0.5,0.8,1.1,0.8,1.9
			V26.9z"/>
		<path class="st1" d="M136.9,8.9H133v20.1h-3.5V8.9h-3.8V5.9h11.1V8.9z"/>
		<path class="st1" d="M143.3,29.1h-3.5V5.9h3.5V29.1z"/>
		<path class="st1" d="M158.7,26.9c0,1.4-0.7,2.1-2.1,2.1h-7.2c-1.4,0-2.1-0.7-2.1-2.1V8c0-1.4,0.7-2.1,2.1-2.1h7.2
			c1.4,0,2.1,0.7,2.1,2.1v5.4h-3.5V8.8h-4.5v17.2h4.5v-4.9h3.5V26.9z"/>
	</g>
	<g>
		<path class="st2" d="M55.5,44.2h-1.4l-0.3-1.8H52l-0.3,1.8h-1.4v0l1.8-9.4h1.5L55.5,44.2z M53.6,41.2l-0.7-4.3l-0.7,4.3H53.6z"/>
		<path class="st2" d="M66.6,39.9c0,0.6-0.3,0.9-0.9,0.9h-2.3v3.4H62v-9.4h3.7c0.6,0,0.9,0.3,0.9,0.9V39.9z M65.1,39.5v-3.6h-1.7
			v3.6H65.1z"/>
		<path class="st2" d="M78.1,44.2h-1.4l-0.3-1.8h-1.8l-0.3,1.8H73v0l1.8-9.4h1.5L78.1,44.2z M76.2,41.2l-0.7-4.3l-0.7,4.3H76.2z"/>
		<path class="st2" d="M89.5,44.2H88l-1.6-4.4v-0.8h1.4v-3h-1.8v8.2h-1.4v-9.4h3.7c0.6,0,0.8,0.3,0.8,0.9V39c0,0.4-0.1,0.7-0.4,0.8
			c-0.1,0.1-0.4,0.1-0.9,0.1L89.5,44.2z"/>
		<path class="st2" d="M100.2,36h-1.6v8.2h-1.4V36h-1.6v-1.2h4.5V36z"/>
		<path class="st2" d="M112.4,44.2h-1.4v-4.7c0-0.2,0-0.6,0.1-1l-1.2,4.8h-0.7l-1.2-4.8c0.1,0.4,0.1,0.8,0.1,1v4.7h-1.4v-9.4h1.3
			l1.5,5.2c0,0.1,0,0.2,0,0.4c0-0.1,0-0.2,0-0.4l1.5-5.2h1.3V44.2z"/>
		<path class="st2" d="M123.2,44.2h-3.9v-9.4h3.9V36h-2.5v2.8h2.1V40h-2.1v3h2.5V44.2z"/>
		<path class="st2" d="M134.8,44.2h-1.2l-2.3-5.9c0.1,0.3,0.1,0.5,0.1,0.7v5.3H130v-9.4h1.2l2.3,5.8c-0.1-0.3-0.1-0.5-0.1-0.7v-5.1
			h1.4V44.2z"/>
		<path class="st2" d="M145.8,36h-1.6v8.2h-1.4V36h-1.6v-1.2h4.5V36z"/>
		<path class="st2" d="M156.8,43.3c0,0.6-0.3,0.9-0.9,0.9h-2.8c-0.6,0-0.8-0.3-0.8-0.9v-2.2h1.4V43h1.7v-1.8l-2.8-2.7
			c-0.2-0.2-0.3-0.4-0.3-0.8v-2.1c0-0.6,0.3-0.9,0.8-0.9h2.8c0.6,0,0.9,0.3,0.9,0.9v2.1h-1.4v-1.8h-1.7v1.7l2.8,2.7
			c0.2,0.2,0.3,0.4,0.3,0.8V43.3z"/>
	</g>
</g>
<g>
	<path class="st2" d="M23.5,40.8c9.2,0,17.4,1.6,23.5,4.2c-5.5-3.3-14-5.5-23.5-5.5S5.6,41.7,0,45C6.1,42.4,14.3,40.8,23.5,40.8z"/>
	<g>
		<path class="st2" d="M13.9,14.7l-3.7,2.1v22.3c1.1-0.2,2.4-0.3,3.7-0.6V14.7z"/>
		
			<linearGradient id="SVGID_1_" gradientUnits="userSpaceOnUse" x1="30.043" y1="0.1666" x2="30.043" y2="34.4649" gradientTransform="matrix(1 0 0 -1 0 52)">
			<stop  offset="0" style="stop-color:#DDC18E"/>
			<stop  offset="1" style="stop-color:#B1915D"/>
		</linearGradient>
		<path class="st3" d="M28.7,30.9c0.9,0.1,1.8,0.1,2.8,0.2V6.6L28.7,5V30.9z"/>
		
			<linearGradient id="SVGID_00000169533616232189919600000001113907394509396669_" gradientUnits="userSpaceOnUse" x1="16.7274" y1="0.1666" x2="16.7274" y2="34.4649" gradientTransform="matrix(1 0 0 -1 0 52)">
			<stop  offset="0" style="stop-color:#DDC18E"/>
			<stop  offset="1" style="stop-color:#B1915D"/>
		</linearGradient>
		<path style="fill:url(#SVGID_00000169533616232189919600000001113907394509396669_);" d="M15.3,31.1c0.9-0.1,1.8-0.2,2.8-0.2V5
			l-2.8,1.6V31.1z"/>
		<path class="st2" d="M32.9,14.7v23.9c1.3,0.1,2.4,0.3,3.7,0.6V16.9L32.9,14.7z"/>
		<path class="st2" d="M23.4,9.2l-3.7,2.2v26.7c0.7,0,1.3,0,2-0.1v-6.2l1.7-1l1.7,1V38c0.7,0,1.3,0,2,0.1V11.4L23.4,9.2z"/>
	</g>
</g>
</svg>
