<?xml version="1.0" encoding="utf-8"?>
<!-- Generator: Adobe Illustrator 26.0.0, SVG Export Plug-In . SVG Version: 6.00 Build 0)  -->
<svg version="1.1" id="Layer_1" xmlns="http://www.w3.org/2000/svg" xmlns:xlink="http://www.w3.org/1999/xlink" x="0px" y="0px"
	 viewBox="0 0 97.1 12.7" style="enable-background:new 0 0 97.1 12.7;" xml:space="preserve">
<style type="text/css">
	.st0{fill:none;stroke:#E3C48E;stroke-width:0.75;stroke-miterlimit:10;}
	.st1{fill:#E3C48E;}
</style>
<line class="st0" x1="3.2" y1="7.6" x2="34.8" y2="7.6"/>
<circle class="st1" cx="2.6" cy="7.6" r="2.5"/>
<line class="st0" x1="93.9" y1="7.6" x2="62.1" y2="7.6"/>
<circle class="st1" cx="94.4" cy="7.6" r="2.5"/>
<g>
	<g>
		<path class="st1" d="M39,10.5c0,0.1-0.1,0.1-0.1,0.1h-1.7c-0.1,0-0.1-0.1-0.1-0.1V8.7c0-0.1,0.1-0.1,0.1-0.1h1.7
			c0.1,0,0.1,0.1,0.1,0.1V10.5z"/>
		<path class="st1" d="M41.5,10.5c0,0.1-0.1,0.1-0.1,0.1h-1.7c-0.1,0-0.1-0.1-0.1-0.1V8.7c0-0.1,0.1-0.1,0.1-0.1h1.7
			c0.1,0,0.1,0.1,0.1,0.1V10.5z"/>
	</g>
	<g>
		<path class="st1" d="M57.6,10.5c0,0.1-0.1,0.1-0.1,0.1h-1.8c-0.1,0-0.1-0.1-0.1-0.1V8.7c0-0.1,0.1-0.1,0.1-0.1h1.8
			c0.1,0,0.1,0.1,0.1,0.1V10.5z"/>
		<path class="st1" d="M60.1,10.5c0,0.1-0.1,0.1-0.1,0.1h-1.8c-0.1,0-0.1-0.1-0.1-0.1V8.7c0-0.1,0.1-0.1,0.1-0.1H60
			c0.1,0,0.1,0.1,0.1,0.1V10.5z"/>
	</g>
	<g>
		<path class="st1" d="M64.1,8.8l-2.2-2.2c0,0,0,0,0,0V5.1c0-0.1-0.1-0.2-0.2-0.2H61c-0.1,0-0.2,0.1-0.2,0.2v0.5L58,2.7
			c-0.1-0.1-0.2-0.1-0.3,0L57.4,3c-0.1,0.1-0.2,0.2-0.3,0.3L54.5,6l-5.2-5.2c-0.1-0.1-0.2-0.2-0.3-0.3l-0.3-0.3
			c-0.1-0.1-0.2-0.1-0.3,0l-2.9,2.9V2.5c0-0.1-0.1-0.2-0.2-0.2h-0.7c-0.1,0-0.2,0.1-0.2,0.2v1.5c0,0,0,0,0,0L42.6,6L40,3.3
			c-0.1-0.1-0.2-0.2-0.3-0.3l-0.3-0.3c-0.1-0.1-0.2-0.1-0.3,0l-2.9,2.9V5.1c0-0.1-0.1-0.2-0.2-0.2h-0.7c-0.1,0-0.2,0.1-0.2,0.2v1.5
			c0,0,0,0,0,0L33,8.8c-0.1,0.1-0.1,0.2,0,0.3l0.3,0.3c0.1,0.1,0.2,0.1,0.3,0l5.5-5.5c0.1-0.1,0.2-0.1,0.3,0l5.5,5.5
			c0.1,0.1,0.2,0.1,0.3,0l0.3-0.3c0.1-0.1,0.1-0.2,0-0.3l-2.3-2.3l5.2-5.2c0.1-0.1,0.2-0.1,0.3,0l5.2,5.2l-2.3,2.3
			c-0.1,0.1-0.1,0.2,0,0.3l0.3,0.3c0.1,0.1,0.2,0.1,0.3,0l5.5-5.5c0.1-0.1,0.2-0.1,0.3,0l5.5,5.5c0.1,0.1,0.2,0.1,0.3,0l0.3-0.3
			C64.2,9,64.2,8.9,64.1,8.8z"/>
	</g>
	<path class="st1" d="M39,12v-0.9c0-0.1-0.1-0.1-0.1-0.1h-1.7C37.1,11,37,11,37,11.1v1.5C37.6,12.4,38.3,12.2,39,12z"/>
	<path class="st1" d="M41.5,11.6v-0.5c0-0.1-0.1-0.1-0.1-0.1h-1.7c-0.1,0-0.1,0.1-0.1,0.1v0.8C40.2,11.8,40.8,11.7,41.5,11.6z"/>
	<path class="st1" d="M57.6,11.9v-0.8c0-0.1-0.1-0.1-0.1-0.1h-1.8c-0.1,0-0.1,0.1-0.1,0.1v0.5C56.3,11.7,56.9,11.8,57.6,11.9z"/>
	<path class="st1" d="M60.1,12.6v-1.5C60.1,11,60,11,60,11h-1.8c-0.1,0-0.1,0.1-0.1,0.1V12C58.8,12.2,59.5,12.4,60.1,12.6z"/>
	<g>
		<g>
			<path class="st1" d="M48.3,8.2c0,0.1-0.1,0.1-0.1,0.1h-1.8c-0.1,0-0.1-0.1-0.1-0.1V6.5c0-0.1,0.1-0.1,0.1-0.1h1.8
				c0.1,0,0.1,0.1,0.1,0.1V8.2z"/>
			<path class="st1" d="M50.8,8.2c0,0.1-0.1,0.1-0.1,0.1h-1.8c-0.1,0-0.1-0.1-0.1-0.1V6.5c0-0.1,0.1-0.1,0.1-0.1h1.8
				c0.1,0,0.1,0.1,0.1,0.1V8.2z"/>
		</g>
		<g>
			<path class="st1" d="M48.3,10.6c0,0.1-0.1,0.1-0.1,0.1h-1.8c-0.1,0-0.1-0.1-0.1-0.1V8.8c0-0.1,0.1-0.1,0.1-0.1h1.8
				c0.1,0,0.1,0.1,0.1,0.1V10.6z"/>
			<path class="st1" d="M50.8,10.6c0,0.1-0.1,0.1-0.1,0.1h-1.8c-0.1,0-0.1-0.1-0.1-0.1V8.8c0-0.1,0.1-0.1,0.1-0.1h1.8
				c0.1,0,0.1,0.1,0.1,0.1V10.6z"/>
		</g>
	</g>
</g>
</svg>
